HIERARCHY
ROOT mixamorig:Hips
{
	OFFSET -0.000008 104.274872 1.554316
	CHANNELS 6 Xposition Yposition Zposition Xrotation Yrotation Zrotation
	JOINT mixamorig:Spine
	{
		OFFSET -0.000005 10.181595 0.131519
		CHANNELS 6 Xposition Yposition Zposition Xrotation Yrotation Zrotation
		JOINT mixamorig:Spine1
		{
			OFFSET -0.000000 9.893959 -1.470707
			CHANNELS 6 Xposition Yposition Zposition Xrotation Yrotation Zrotation
			JOINT mixamorig:Spine2
			{
				OFFSET -0.000000 9.220757 -1.370641
				CHANNELS 6 Xposition Yposition Zposition Xrotation Yrotation Zrotation
				JOINT mixamorig:Neck
				{
					OFFSET 0.000001 16.740417 -2.049036
					CHANNELS 6 Xposition Yposition Zposition Xrotation Yrotation Zrotation
					JOINT mixamorig:Head
					{
						OFFSET 0.000000 9.617874 1.685006
						CHANNELS 6 Xposition Yposition Zposition Xrotation Yrotation Zrotation
						JOINT mixamorig:HeadTop_End
						{
							OFFSET 0.000002 22.037354 7.501101
							CHANNELS 6 Xposition Yposition Zposition Xrotation Yrotation Zrotation
							End Site
							{
								OFFSET 0.000168 2310.654297 -282.823242
							}
						}
					}
				}
				JOINT mixamorig:RightShoulder
				{
					OFFSET -4.569970 11.014908 -2.160885
					CHANNELS 6 Xposition Yposition Zposition Xrotation Yrotation Zrotation
					JOINT mixamorig:RightArm
					{
						OFFSET -10.592851 -0.524811 -2.232101
						CHANNELS 6 Xposition Yposition Zposition Xrotation Yrotation Zrotation
						JOINT mixamorig:RightForeArm
						{
							OFFSET -27.841511 0.000031 -0.000004
							CHANNELS 6 Xposition Yposition Zposition Xrotation Yrotation Zrotation
							JOINT mixamorig:RightHand
							{
								OFFSET -28.328831 -0.000015 0.000015
								CHANNELS 6 Xposition Yposition Zposition Xrotation Yrotation Zrotation
								JOINT mixamorig:RightHandThumb1
								{
									OFFSET -2.464806 -1.573990 2.681852
									CHANNELS 6 Xposition Yposition Zposition Xrotation Yrotation Zrotation
									JOINT mixamorig:RightHandThumb2
									{
										OFFSET -3.215179 -1.872803 1.924282
										CHANNELS 6 Xposition Yposition Zposition Xrotation Yrotation Zrotation
										JOINT mixamorig:RightHandThumb3
										{
											OFFSET -2.654831 -1.527969 1.512609
											CHANNELS 6 Xposition Yposition Zposition Xrotation Yrotation Zrotation
											JOINT mixamorig:RightHandThumb4
											{
												OFFSET -2.018814 -1.152008 1.108052
												CHANNELS 6 Xposition Yposition Zposition Xrotation Yrotation Zrotation
												End Site
												{
													OFFSET -188.809540 -114.533607 132.431396
												}
											}
										}
									}
								}
								JOINT mixamorig:RightHandIndex1
								{
									OFFSET -9.108284 -0.517868 2.259835
									CHANNELS 6 Xposition Yposition Zposition Xrotation Yrotation Zrotation
									JOINT mixamorig:RightHandIndex2
									{
										OFFSET -3.699989 0.000000 0.001215
										CHANNELS 6 Xposition Yposition Zposition Xrotation Yrotation Zrotation
										JOINT mixamorig:RightHandIndex3
										{
											OFFSET -2.850006 0.000031 -0.000522
											CHANNELS 6 Xposition Yposition Zposition Xrotation Yrotation Zrotation
											JOINT mixamorig:RightHandIndex4
											{
												OFFSET -2.772186 -0.000015 -0.000020
												CHANNELS 6 Xposition Yposition Zposition Xrotation Yrotation Zrotation
												End Site
												{
													OFFSET -277.218445 0.000000 -0.050231
												}
											}
										}
									}
								}
								JOINT mixamorig:RightHandMiddle1
								{
									OFFSET -9.532516 -0.000031 -0.000023
									CHANNELS 6 Xposition Yposition Zposition Xrotation Yrotation Zrotation
									JOINT mixamorig:RightHandMiddle2
									{
										OFFSET -3.700005 -0.000015 0.003713
										CHANNELS 6 Xposition Yposition Zposition Xrotation Yrotation Zrotation
										JOINT mixamorig:RightHandMiddle3
										{
											OFFSET -2.949974 0.000015 -0.002054
											CHANNELS 6 Xposition Yposition Zposition Xrotation Yrotation Zrotation
											JOINT mixamorig:RightHandMiddle4
											{
												OFFSET -2.946640 0.000000 -0.000156
												CHANNELS 6 Xposition Yposition Zposition Xrotation Yrotation Zrotation
												End Site
												{
													OFFSET -294.664337 0.000000 -0.113670
												}
											}
										}
									}
								}
								JOINT mixamorig:RightHandRing1
								{
									OFFSET -9.103600 -0.043076 -1.865134
									CHANNELS 6 Xposition Yposition Zposition Xrotation Yrotation Zrotation
									JOINT mixamorig:RightHandRing2
									{
										OFFSET -3.379288 0.000000 -0.001055
										CHANNELS 6 Xposition Yposition Zposition Xrotation Yrotation Zrotation
										JOINT mixamorig:RightHandRing3
										{
											OFFSET -2.889687 -0.000015 0.000379
											CHANNELS 6 Xposition Yposition Zposition Xrotation Yrotation Zrotation
											JOINT mixamorig:RightHandRing4
											{
												OFFSET -2.638809 -0.000015 0.000941
												CHANNELS 6 Xposition Yposition Zposition Xrotation Yrotation Zrotation
												End Site
												{
													OFFSET -263.880371 0.000000 0.516020
												}
											}
										}
									}
								}
								JOINT mixamorig:RightHandPinky1
								{
									OFFSET -8.076683 -0.486710 -3.806280
									CHANNELS 6 Xposition Yposition Zposition Xrotation Yrotation Zrotation
									JOINT mixamorig:RightHandPinky2
									{
										OFFSET -3.600014 -0.000015 -0.003747
										CHANNELS 6 Xposition Yposition Zposition Xrotation Yrotation Zrotation
										JOINT mixamorig:RightHandPinky3
										{
											OFFSET -2.099983 0.000000 -0.005739
											CHANNELS 6 Xposition Yposition Zposition Xrotation Yrotation Zrotation
											JOINT mixamorig:RightHandPinky4
											{
												OFFSET -2.115768 -0.000031 -0.003680
												CHANNELS 6 Xposition Yposition Zposition Xrotation Yrotation Zrotation
												End Site
												{
													OFFSET -211.577087 0.000000 -0.350686
												}
											}
										}
									}
								}
							}
						}
					}
				}
				JOINT mixamorig:LeftShoulder
				{
					OFFSET 4.570447 11.014725 -2.160855
					CHANNELS 6 Xposition Yposition Zposition Xrotation Yrotation Zrotation
					JOINT mixamorig:LeftArm
					{
						OFFSET 10.592371 -0.524597 -2.232119
						CHANNELS 6 Xposition Yposition Zposition Xrotation Yrotation Zrotation
						JOINT mixamorig:LeftForeArm
						{
							OFFSET 27.841532 -0.000031 0.000026
							CHANNELS 6 Xposition Yposition Zposition Xrotation Yrotation Zrotation
							JOINT mixamorig:LeftHand
							{
								OFFSET 28.328846 -0.000061 0.000022
								CHANNELS 6 Xposition Yposition Zposition Xrotation Yrotation Zrotation
								JOINT mixamorig:LeftHandThumb1
								{
									OFFSET 2.466141 -1.576172 2.681732
									CHANNELS 6 Xposition Yposition Zposition Xrotation Yrotation Zrotation
									JOINT mixamorig:LeftHandThumb2
									{
										OFFSET 3.217812 -1.872070 1.916482
										CHANNELS 6 Xposition Yposition Zposition Xrotation Yrotation Zrotation
										JOINT mixamorig:LeftHandThumb3
										{
											OFFSET 2.656029 -1.528778 1.514513
											CHANNELS 6 Xposition Yposition Zposition Xrotation Yrotation Zrotation
											JOINT mixamorig:LeftHandThumb4
											{
												OFFSET 2.020889 -1.154053 1.115139
												CHANNELS 6 Xposition Yposition Zposition Xrotation Yrotation Zrotation
												End Site
												{
													OFFSET 190.885437 -115.081749 130.048782
												}
											}
										}
									}
								}
								JOINT mixamorig:LeftHandIndex1
								{
									OFFSET 9.109314 -0.518021 2.259871
									CHANNELS 6 Xposition Yposition Zposition Xrotation Yrotation Zrotation
									JOINT mixamorig:LeftHandIndex2
									{
										OFFSET 3.699989 0.000000 -0.000322
										CHANNELS 6 Xposition Yposition Zposition Xrotation Yrotation Zrotation
										JOINT mixamorig:LeftHandIndex3
										{
											OFFSET 2.850006 0.000000 0.000352
											CHANNELS 6 Xposition Yposition Zposition Xrotation Yrotation Zrotation
											JOINT mixamorig:LeftHandIndex4
											{
												OFFSET 2.774864 -0.000031 -0.000027
												CHANNELS 6 Xposition Yposition Zposition Xrotation Yrotation Zrotation
												End Site
												{
													OFFSET 277.486267 0.000000 -0.009857
												}
											}
										}
									}
								}
								JOINT mixamorig:LeftHandMiddle1
								{
									OFFSET 9.533394 0.000061 0.000044
									CHANNELS 6 Xposition Yposition Zposition Xrotation Yrotation Zrotation
									JOINT mixamorig:LeftHandMiddle2
									{
										OFFSET 3.699989 -0.000015 -0.000231
										CHANNELS 6 Xposition Yposition Zposition Xrotation Yrotation Zrotation
										JOINT mixamorig:LeftHandMiddle3
										{
											OFFSET 2.949997 -0.000015 -0.000059
											CHANNELS 6 Xposition Yposition Zposition Xrotation Yrotation Zrotation
											JOINT mixamorig:LeftHandMiddle4
											{
												OFFSET 2.952896 0.000031 0.000063
												CHANNELS 6 Xposition Yposition Zposition Xrotation Yrotation Zrotation
												End Site
												{
													OFFSET 295.289337 0.000000 0.022810
												}
											}
										}
									}
								}
								JOINT mixamorig:LeftHandRing1
								{
									OFFSET 9.104523 -0.042999 -1.865074
									CHANNELS 6 Xposition Yposition Zposition Xrotation Yrotation Zrotation
									JOINT mixamorig:LeftHandRing2
									{
										OFFSET 3.150009 -0.000031 0.000043
										CHANNELS 6 Xposition Yposition Zposition Xrotation Yrotation Zrotation
										JOINT mixamorig:LeftHandRing3
										{
											OFFSET 2.949982 -0.000015 0.000040
											CHANNELS 6 Xposition Yposition Zposition Xrotation Yrotation Zrotation
											JOINT mixamorig:LeftHandRing4
											{
												OFFSET 2.644348 0.000000 0.000057
												CHANNELS 6 Xposition Yposition Zposition Xrotation Yrotation Zrotation
												End Site
												{
													OFFSET 264.434631 0.000000 0.012105
												}
											}
										}
									}
								}
								JOINT mixamorig:LeftHandPinky1
								{
									OFFSET 8.077789 -0.486847 -3.806259
									CHANNELS 6 Xposition Yposition Zposition Xrotation Yrotation Zrotation
									JOINT mixamorig:LeftHandPinky2
									{
										OFFSET 3.599953 0.000031 0.014727
										CHANNELS 6 Xposition Yposition Zposition Xrotation Yrotation Zrotation
										JOINT mixamorig:LeftHandPinky3
										{
											OFFSET 2.100021 0.000015 0.007705
											CHANNELS 6 Xposition Yposition Zposition Xrotation Yrotation Zrotation
											JOINT mixamorig:LeftHandPinky4
											{
												OFFSET 2.125504 0.000031 0.007517
												CHANNELS 6 Xposition Yposition Zposition Xrotation Yrotation Zrotation
												End Site
												{
													OFFSET 212.550781 0.000000 0.625752
												}
											}
										}
									}
								}
							}
						}
					}
				}
			}
		}
	}
	JOINT mixamorig:RightUpLeg
	{
		OFFSET -8.207787 -6.751648 -1.599560
		CHANNELS 6 Xposition Yposition Zposition Xrotation Yrotation Zrotation
		JOINT mixamorig:RightLeg
		{
			OFFSET -0.000002 -44.370117 0.345942
			CHANNELS 6 Xposition Yposition Zposition Xrotation Yrotation Zrotation
			JOINT mixamorig:RightFoot
			{
				OFFSET 0.000003 -44.423679 -3.043532
				CHANNELS 6 Xposition Yposition Zposition Xrotation Yrotation Zrotation
				JOINT mixamorig:RightToeBase
				{
					OFFSET -0.000002 -8.728671 10.710558
					CHANNELS 6 Xposition Yposition Zposition Xrotation Yrotation Zrotation
					JOINT mixamorig:RightToe_End
					{
						OFFSET -0.000001 -0.000679 9.278119
						CHANNELS 6 Xposition Yposition Zposition Xrotation Yrotation Zrotation
						End Site
						{
							OFFSET 0.000000 -0.067690 927.812134
						}
					}
				}
			}
		}
	}
	JOINT mixamorig:LeftUpLeg
	{
		OFFSET 8.207793 -6.751686 -1.599556
		CHANNELS 6 Xposition Yposition Zposition Xrotation Yrotation Zrotation
		JOINT mixamorig:LeftLeg
		{
			OFFSET -0.000004 -44.370014 0.346954
			CHANNELS 6 Xposition Yposition Zposition Xrotation Yrotation Zrotation
			JOINT mixamorig:LeftFoot
			{
				OFFSET -0.000001 -44.423672 -3.044401
				CHANNELS 6 Xposition Yposition Zposition Xrotation Yrotation Zrotation
				JOINT mixamorig:LeftToeBase
				{
					OFFSET -0.000002 -8.728669 10.710558
					CHANNELS 6 Xposition Yposition Zposition Xrotation Yrotation Zrotation
					JOINT mixamorig:LeftToe_End
					{
						OFFSET -0.000003 -0.000679 9.278133
						CHANNELS 6 Xposition Yposition Zposition Xrotation Yrotation Zrotation
						End Site
						{
							OFFSET 0.000000 -0.068021 927.813477
						}
					}
				}
			}
		}
	}
}
MOTION
Frames: 3
Frame Time: 0.033333
0.000006 104.270477 1.554256 0.000010 0.000003 -0.000113 -0.000005 10.181587 0.131522 0.000001 -0.000003 0.000084 -0.000000 9.893967 -1.470711 0.000001 0.000000 -0.000000 -0.000000 9.220802 -1.370642 0.000000 -0.000000 -0.000000 0.000001 16.740433 -2.049030 0.000000 -0.000000 -0.000000 0.000000 9.617859 1.685014 0.000000 0.000000 0.000000 0.000002 22.037384 7.501101 0.000000 -0.000000 0.000000 -4.569968 11.014880 -2.160881 0.000008 0.000001 -0.000038 -10.592802 -0.524820 -2.231756 30.765139 68.648066 -21.277197 -27.841478 0.000029 0.000586 -0.828209 105.215376 1.083491 -28.328831 -0.000009 0.000024 -0.000321 -0.000044 0.000008 -2.464337 -1.573848 2.682243 -47.931085 -139.131705 -11.120329 -3.215147 -1.872422 1.924576 134.577294 29.682715 60.567222 -2.654941 -1.527885 1.513090 146.107855 26.862232 -39.823076 -2.018827 -1.152002 1.108064 -0.000006 -0.000005 0.000002 -9.108360 -0.517544 2.260134 103.242756 10.519095 -13.315260 -3.700080 0.000005 0.001312 -5.290353 19.575220 0.916015 -2.850037 -0.000142 -0.000327 -56.697824 5.166946 2.788775 -2.772150 -0.000015 -0.000014 -0.000002 0.000000 0.000001 -9.532537 0.000294 0.000237 99.126911 4.780450 -5.754424 -3.699958 -0.000133 0.003784 -34.533757 -9.202709 -2.897719 -2.949974 -0.000199 -0.001821 -69.210054 -2.111848 -1.461533 -2.946625 -0.000015 -0.000164 0.000001 -0.000000 -0.000000 -9.103604 -0.042698 -1.864879 100.682972 -0.687141 0.871434 -3.379087 -0.000194 -0.000970 -49.683834 -35.129125 -16.662038 -2.889639 -0.000226 0.000604 287.380045 -14.076986 -10.331278 -2.638803 -0.000031 0.000937 -0.000000 -0.000002 -0.000002 -8.076601 -0.486291 -3.806002 105.147586 -9.546028 12.581813 -3.599800 -0.000241 -0.003622 126.652375 -141.724294 159.955066 -2.099889 -0.000274 -0.005582 290.966059 -23.066389 -16.165442 -2.115774 -0.000058 -0.003683 0.000005 0.000005 -0.000004 4.570446 11.014691 -2.160851 -0.000018 0.000010 -0.000021 10.592455 -0.524578 -2.232338 24.575166 -59.391200 14.161364 27.841824 -0.000005 -0.000154 170.081983 -77.850100 167.735854 28.328829 -0.000014 0.000020 0.000021 -0.000087 0.000001 2.466018 -1.576198 2.681875 -23.551023 126.167678 -23.631136 3.217490 -1.871738 1.916449 123.368393 -13.900602 -103.472701 2.655969 -1.528443 1.514404 144.730274 -31.447475 -18.540842 2.020902 -1.154048 1.115144 -0.000002 0.000003 0.000004 9.109393 -0.517726 2.259791 130.865509 -11.569179 24.963761 3.699965 0.000052 -0.000138 -51.592271 -18.468140 -8.989732 2.850016 0.000033 0.000491 -44.770169 -3.536262 -1.456442 2.774878 -0.000021 -0.000023 0.000000 -0.000000 -0.000003 9.533436 0.000364 -0.000027 138.087806 -3.596545 9.352659 3.700018 0.000044 -0.000074 301.673063 8.263918 4.618608 2.950017 0.000024 0.000081 -46.789654 2.277812 0.984437 2.952874 -0.000031 0.000054 -0.000001 -0.000000 -0.000000 9.104466 -0.042614 -1.865127 151.204761 3.766570 -14.592885 3.150018 -0.000015 0.000093 119.649328 145.689438 -159.650290 2.949994 0.000020 0.000148 316.142327 11.565544 4.668603 2.644338 0.000015 0.000055 0.000002 -0.000003 -0.000002 8.077530 -0.486588 -3.806262 165.335124 11.711282 -76.687629 3.599983 0.000032 0.014812 299.598571 38.355013 -337.508170 2.099998 -0.000012 0.007786 323.000302 23.560097 7.760662 2.125485 -0.000016 0.007510 -0.000000 -0.000003 -0.000002 -8.207786 -6.751667 -1.599560 -0.077001 -0.000003 0.000080 -0.000002 -44.370110 0.345938 0.153719 -0.000000 -0.000000 0.000000 -44.423679 -3.043532 -0.076700 0.000000 -0.000002 -0.000006 -8.728667 10.710559 -0.000009 -0.000000 -0.000000 -0.000001 -0.000679 9.278123 0.000000 -0.000000 -0.000000 8.207792 -6.751710 -1.599556 -0.074518 -0.000003 0.000081 -0.000002 -44.370014 0.346960 0.148822 0.000002 0.000000 -0.000001 -44.423664 -3.044403 -0.074314 0.000000 -0.000002 -0.000004 -8.728671 10.710558 0.000007 -0.000000 -0.000000 0.000000 -0.000680 9.278137 -0.000000 0.000000 -0.000001 
0.000006 104.270477 1.554256 0.000010 0.000003 -0.000113 -0.000005 10.181587 0.131522 0.000001 -0.000003 0.000084 -0.000000 9.893967 -1.470711 0.000001 0.000000 -0.000000 -0.000000 9.220802 -1.370642 0.000000 -0.000000 -0.000000 0.000001 16.740433 -2.049030 0.000000 -0.000000 -0.000000 0.000000 9.617859 1.685014 0.000000 0.000000 0.000000 0.000002 22.037384 7.501101 0.000000 -0.000000 0.000000 -4.569968 11.014880 -2.160881 0.000008 0.000001 -0.000038 -10.592804 -0.524824 -2.231762 29.629043 67.831763 -20.167136 -27.841467 -0.000004 0.000594 1.263765 106.291097 -1.685969 -28.328838 0.000021 0.000028 -0.000321 -0.000044 0.000008 -2.464357 -1.573887 2.682256 -41.574631 -137.677831 -0.319178 -3.215146 -1.872433 1.924581 137.535640 31.386666 56.497703 -2.654962 -1.527893 1.513090 145.744079 26.626422 -43.459370 -2.018842 -1.152002 1.108065 -0.000007 -0.000003 0.000002 -9.108369 -0.517512 2.260131 103.970417 11.126873 -14.262325 -3.700072 -0.000031 0.001306 -13.887829 19.089718 2.347676 -2.850043 -0.000154 -0.000276 -62.260309 6.499996 3.927980 -2.772176 -0.000007 -0.000016 0.000001 0.000001 -0.000001 -9.532546 0.000313 0.000239 101.375976 4.773461 -5.979756 -3.699955 -0.000143 0.003798 -34.709061 -10.943667 -3.462477 -2.949980 -0.000204 -0.001818 -69.466815 -1.913121 -1.330734 -2.946625 -0.000015 -0.000157 0.000001 0.000000 0.000000 -9.103624 -0.042659 -1.864851 103.979556 0.371351 -0.429131 -3.379098 -0.000183 -0.000997 -45.390036 -35.514532 -15.245078 -2.889645 -0.000229 0.000576 288.313159 -15.376941 -11.102830 -2.638803 -0.000010 0.000939 0.000002 0.000004 -0.000002 -8.076620 -0.486272 -3.805962 111.981259 -7.773073 11.649701 -3.599787 -0.000231 -0.003663 131.983707 -140.883921 161.768072 -2.099869 -0.000269 -0.005599 295.721646 -24.215650 -15.528645 -2.115764 -0.000052 -0.003679 0.000000 0.000005 -0.000008 4.570446 11.014691 -2.160851 -0.000018 0.000010 -0.000021 10.592446 -0.524573 -2.232329 23.037105 -55.455163 12.228160 27.841833 -0.000002 -0.000148 170.291123 -76.308253 167.660257 28.328838 -0.000012 0.000022 0.000020 -0.000088 -0.000000 2.466081 -1.576204 2.681885 -7.839316 125.449716 -44.398081 3.217469 -1.871755 1.916452 123.863076 -13.376403 -107.678970 2.655991 -1.528453 1.514397 146.951698 -31.283844 -11.211073 2.020880 -1.154066 1.115146 0.000001 0.000003 0.000001 9.109423 -0.517724 2.259810 136.688792 -12.907857 31.774170 3.699987 0.000046 -0.000117 -58.842852 -17.428626 -9.885934 2.849989 0.000043 0.000487 -40.381222 -3.071641 -1.129437 2.774881 -0.000031 -0.000026 -0.000000 0.000000 0.000003 9.533464 0.000395 0.000002 146.275495 -5.459910 17.853501 3.700006 0.000071 -0.000041 292.833596 4.235192 2.814392 2.950019 0.000014 0.000061 -42.030740 1.952587 0.749194 2.952863 -0.000043 0.000060 0.000002 0.000002 -0.000002 9.104507 -0.042614 -1.865083 158.794863 1.458577 -7.772480 3.150031 0.000056 0.000165 109.939736 152.351140 -160.427456 2.949991 0.000010 0.000130 320.207601 12.007069 4.358757 2.644316 0.000033 0.000053 0.000002 0.000001 0.000000 8.077494 -0.486673 -3.806221 174.083914 7.908933 -107.635886 3.600001 0.000055 0.014868 287.535255 34.492882 -334.825381 2.100002 0.000002 0.007769 324.647006 23.400672 7.337041 2.125511 -0.000014 0.007515 0.000001 -0.000000 0.000003 -8.207786 -6.751667 -1.599560 -0.077001 -0.000003 0.000080 -0.000002 -44.370110 0.345938 0.153719 -0.000000 -0.000000 0.000000 -44.423679 -3.043532 -0.076700 0.000000 -0.000002 -0.000006 -8.728667 10.710559 -0.000009 -0.000000 -0.000000 -0.000001 -0.000679 9.278123 0.000000 -0.000000 -0.000000 8.207792 -6.751710 -1.599556 -0.074518 -0.000003 0.000081 -0.000002 -44.370014 0.346960 0.148822 0.000002 0.000000 -0.000001 -44.423664 -3.044403 -0.074314 0.000000 -0.000002 -0.000004 -8.728671 10.710558 0.000007 -0.000000 -0.000000 0.000000 -0.000680 9.278137 -0.000000 0.000000 -0.000001 
0.000006 104.270477 1.554256 0.000010 0.000003 -0.000113 -0.000005 10.181587 0.131522 0.000001 -0.000003 0.000084 -0.000000 9.893967 -1.470711 0.000001 0.000000 -0.000000 -0.000000 9.220802 -1.370642 0.000000 -0.000000 -0.000000 0.000001 16.740433 -2.049030 0.000000 -0.000000 -0.000000 0.000000 9.617859 1.685014 0.000000 0.000000 0.000000 0.000002 22.037384 7.501101 0.000000 -0.000000 0.000000 -4.569968 11.014880 -2.160881 0.000008 0.000001 -0.000038 -10.592802 -0.524815 -2.231755 29.249827 69.162851 -20.395624 -27.841473 -0.000006 0.000596 -0.423102 104.690845 0.548287 -28.328838 0.000008 0.000025 -0.000321 -0.000045 0.000008 -2.464351 -1.573848 2.682261 -47.745437 -141.728870 -10.705440 -3.215232 -1.872474 1.924610 143.539444 32.731663 34.488391 -2.654958 -1.527910 1.513100 141.985057 27.305903 -48.112604 -2.018849 -1.152017 1.108065 0.000001 -0.000001 0.000002 -9.108366 -0.517542 2.260139 105.353503 10.428224 -13.707905 -3.700087 0.000119 0.001273 22.487855 18.226380 -3.645860 -2.850050 -0.000093 -0.000422 -33.933053 8.152965 2.491043 -2.772186 -0.000000 -0.000025 -0.000000 0.000004 -0.000000 -9.532537 0.000304 0.000251 100.975188 5.036138 -6.256145 -3.699955 -0.000112 0.003765 -26.688259 -11.124569 -2.673573 -2.949975 -0.000224 -0.001775 -65.115301 -3.827273 -2.448312 -2.946625 0.000015 -0.000152 -0.000000 0.000000 -0.000000 -9.103608 -0.042690 -1.864871 103.253356 -0.059896 0.120697 -3.379079 -0.000201 -0.000996 -48.008925 -37.505914 -17.183328 -2.889607 -0.000228 0.000609 289.893938 -16.607627 -11.656649 -2.638803 -0.000013 0.000935 -0.000000 -0.000006 -0.000002 -8.076599 -0.486311 -3.805974 109.749146 -8.933622 12.813945 -3.599782 -0.000233 -0.003674 128.368119 -138.207840 158.803783 -2.099833 -0.000254 -0.005622 296.033458 -26.420907 -16.858727 -2.115764 -0.000071 -0.003678 0.000001 0.000002 -0.000002 4.570446 11.014691 -2.160851 -0.000018 0.000010 -0.000021 10.592453 -0.524569 -2.232332 22.002083 -59.151760 12.591572 27.841827 -0.000015 -0.000152 167.484940 -77.779298 164.517237 28.328827 -0.000014 0.000020 0.000020 -0.000091 0.000002 2.466060 -1.576218 2.681880 -10.879784 126.437443 -41.000010 3.217480 -1.871759 1.916444 123.736486 -14.172006 -104.522877 2.655970 -1.528441 1.514392 145.143460 -31.277034 -15.209995 2.020891 -1.154049 1.115146 0.000003 0.000002 0.000003 9.109428 -0.517747 2.259821 139.552076 -13.537508 35.681888 3.699970 0.000069 -0.000118 -61.435243 -19.535789 -11.685583 2.850019 0.000015 0.000475 -37.221273 -4.074950 -1.372404 2.774863 -0.000041 -0.000021 -0.000001 0.000000 0.000003 9.533469 0.000343 0.000010 148.878931 -5.853204 20.776597 3.699999 0.000087 -0.000020 291.577606 -0.730668 -0.495273 2.950007 -0.000008 0.000070 -39.251769 0.045769 0.015444 2.952860 -0.000031 0.000075 -0.000002 -0.000002 0.000002 9.104506 -0.042621 -1.865083 160.262480 1.023287 -5.868466 3.150035 0.000080 0.000172 107.948954 155.460611 -162.026909 2.949999 0.000006 0.000133 320.552553 11.118880 3.996576 2.644320 0.000035 0.000062 0.000004 0.000001 0.000002 8.077503 -0.486719 -3.806217 175.321995 7.035797 -114.730676 3.599988 0.000052 0.014864 284.768454 31.859902 -335.659811 2.099995 0.000011 0.007779 323.540788 22.569141 7.303417 2.125501 -0.000014 0.007520 0.000001 0.000001 -0.000002 -8.207786 -6.751667 -1.599560 -0.077001 -0.000003 0.000080 -0.000002 -44.370110 0.345938 0.153719 -0.000000 -0.000000 0.000000 -44.423679 -3.043532 -0.076700 0.000000 -0.000002 -0.000006 -8.728667 10.710559 -0.000009 -0.000000 -0.000000 -0.000001 -0.000679 9.278123 0.000000 -0.000000 -0.000000 8.207792 -6.751710 -1.599556 -0.074518 -0.000003 0.000081 -0.000002 -44.370014 0.346960 0.148822 0.000002 0.000000 -0.000001 -44.423664 -3.044403 -0.074314 0.000000 -0.000002 -0.000004 -8.728671 10.710558 0.000007 -0.000000 -0.000000 0.000000 -0.000680 9.278137 -0.000000 0.000000 -0.000001 
